<?xml version="1.0" encoding="UTF-8" standalone="no"?>
<!DOCTYPE svg PUBLIC "-//W3C//DTD SVG 1.1//EN"
 "http://www.w3.org/Graphics/SVG/1.1/DTD/svg11.dtd">
<!-- Generated by graphviz version 2.42.4 (0)
 -->
<!-- Title: G Pages: 1 -->
<svg width="381pt" height="98pt"
 viewBox="0.00 0.00 381.00 98.00" xmlns="http://www.w3.org/2000/svg" xmlns:xlink="http://www.w3.org/1999/xlink">
<g id="graph0" class="graph" transform="scale(1 1) rotate(0) translate(4 94)">
<title>G</title>
<polygon fill="white" stroke="transparent" points="-4,4 -4,-94 377,-94 377,4 -4,4"/>
<!-- data.aws_ami.ami_fetch -->
<g id="node1" class="node">
<title>data.aws_ami.ami_fetch</title>
<polygon fill="none" stroke="black" points="178.5,-90 6.5,-90 6.5,-54 178.5,-54 178.5,-90"/>
<text text-anchor="middle" x="92.5" y="-68.3" font-family="sans-serif" font-size="14.00">data.aws_ami.ami_fetch</text>
</g>
<!-- aws_instance.myec2 -->
<g id="node2" class="node">
<title>aws_instance.myec2</title>
<polygon fill="none" stroke="black" points="373,-63 221,-63 221,-27 373,-27 373,-63"/>
<text text-anchor="middle" x="297" y="-41.3" font-family="sans-serif" font-size="14.00">aws_instance.myec2</text>
</g>
<!-- aws_instance.myec2&#45;&gt;data.aws_ami.ami_fetch -->
<g id="edge1" class="edge">
<title>aws_instance.myec2&#45;&gt;data.aws_ami.ami_fetch</title>
<path fill="none" stroke="black" d="M220.88,-55.02C210.48,-56.4 199.68,-57.84 188.96,-59.27"/>
<polygon fill="black" stroke="black" points="188.18,-55.84 178.73,-60.64 189.11,-62.78 188.18,-55.84"/>
</g>
<!-- aws_security_group.mysg -->
<g id="node3" class="node">
<title>aws_security_group.mysg</title>
<polygon fill="none" stroke="black" points="185,-36 0,-36 0,0 185,0 185,-36"/>
<text text-anchor="middle" x="92.5" y="-14.3" font-family="sans-serif" font-size="14.00">aws_security_group.mysg</text>
</g>
<!-- aws_instance.myec2&#45;&gt;aws_security_group.mysg -->
<g id="edge2" class="edge">
<title>aws_instance.myec2&#45;&gt;aws_security_group.mysg</title>
<path fill="none" stroke="black" d="M220.88,-34.98C212.55,-33.87 203.97,-32.73 195.37,-31.58"/>
<polygon fill="black" stroke="black" points="195.67,-28.09 185.3,-30.24 194.75,-35.03 195.67,-28.09"/>
</g>
</g>
</svg>
